<?xml version="1.0" standalone="no"?>
<!DOCTYPE svg PUBLIC "-//W3C//DTD SVG 1.1//EN" "http://www.w3.org/Graphics/SVG/1.1/DTD/svg11.dtd">
<svg xmlns="http://www.w3.org/2000/svg">
<metadata>Copyright (C) 2017 by original authors @ fontello.com</metadata>
<defs>
<font id="fontello" horiz-adv-x="1000" >
<font-face font-family="fontello" font-weight="400" font-stretch="normal" units-per-em="1000" ascent="850" descent="-150" />
<missing-glyph horiz-adv-x="1000" />
<glyph glyph-name="user" unicode="&#xe800;" d="M4-105q-14 43 25 70 119 78 291 116-84 105-119 255-10 55-11 122t23 149 66 138q84 105 223 105t222-105q43-57 67-138t22-149-11-122q-35-150-119-255 172-38 291-116 39-27 26-71t-61-44l-875 0q-21 0-38 13t-22 32z m60 17l875 0q-109 73-267 108l-79 16q-45-30-91-30t-92 30l-78-16q-160-35-268-108z m193 602q-13-103 16-208t96-186l10-14q56-65 123-65t123 65l9 14q67 82 96 186t16 208q-14 113-76 193t-168 80-168-80-77-193z" horiz-adv-x="1003" />

<glyph glyph-name="lock" unicode="&#xe801;" d="M0 131l0 219q0 39 27 66t67 28l0 125q0 117 82 199t199 82 199-82 82-199l0-125q39 0 67-28t27-66l0-219q0-117-82-199t-199-82l-188 0q-117 0-199 82t-82 199z m63 0q0-90 64-154t154-65l188 0q90 0 154 65t65 154l0 219q0 14-9 22t-23 9l-562 0q-14 0-23-9t-8-22l0-219z m93 313l63 0 0 125q0 64 46 110t110 46 110-46 46-110l0-125 63 0 0 125q0 90-65 154t-154 64-154-64-65-154l0-125z m94 0l250 0 0 125q0 52-36 89t-89 36-89-36-36-89l0-125z m63-250q0 25 18 44t44 18 44-18 19-44q0-28-22-84-14-41-41-41t-41 41q-21 56-21 84z" horiz-adv-x="750" />

<glyph glyph-name="menu" unicode="&#xe802;" d="M650 400q22 0 36-15t14-35-15-35-35-15l-600 0q-20 0-35 15t-15 35 14 35 36 15l600 0z m-600 100q-20 0-35 15t-15 35 14 35 36 15l600 0q22 0 36-15t14-35-15-35-35-15l-600 0z m600-300q22 0 36-15t14-35-15-35-35-15l-600 0q-20 0-35 15t-15 35 14 35 36 15l600 0z" horiz-adv-x="700" />

<glyph glyph-name="dots" unicode="&#xe803;" d="M110 460q46 0 78-32t32-78q0-44-32-77t-78-33-78 33-32 77q0 46 32 78t78 32z m350 0q46 0 78-32t32-78q0-44-33-77t-77-33-77 33-33 77q0 46 32 78t78 32z m350 0q46 0 78-32t32-78q0-44-32-77t-78-33-78 33-32 77q0 46 32 78t78 32z" horiz-adv-x="920" />

<glyph glyph-name="cadeado" unicode="&#xe804;" d="M342 29v-179h-274c-37 0-68 27-68 61v494c0 33 28 60 64 62v105a279 279 0 0 0 278 278v-93a186 186 0 0 1-185-185v-105h185v-179a68 68 0 0 1-25-131l-26-128z m271 438v105a279 279 0 0 1-278 278v-93a186 186 0 0 0 186-185v-105h-186v-179a68 68 0 0 0 26-131l25-128h-51v-179h274c38 0 68 27 68 61v494c0 33-28 60-64 62z" horiz-adv-x="677" />

<glyph glyph-name="celular" unicode="&#xe805;" d="M550 850h-459a91 91 0 0 1-91-90v-820a91 91 0 0 1 91-90h459a91 91 0 0 1 90 90v820a91 91 0 0 1-90 90z m-294-65h126a12 12 0 0 0 13-11 12 12 0 0 0-13-12h-126a12 12 0 0 0-13 12 12 12 0 0 0 13 11z m63-889a31 31 0 1 0 31 31 31 31 0 0 0-31-31z m236 100h-471v708h471z" horiz-adv-x="640" />

<glyph glyph-name="eletro" unicode="&#xe806;" d="M1433 850h-1343a90 90 0 0 1-90-90v-820a90 90 0 0 1 90-90h1343a90 90 0 0 1 90 90v820a90 90 0 0 1-90 90z m5-90v-820a5 5 0 0 0-5-5h-1343a5 5 0 0 0-5 5v820a5 5 0 0 0 5 5h1343a5 5 0 0 0 5-5z m-383-65h-809a90 90 0 0 1-90-90v-510a90 90 0 0 1 90-90h809a90 90 0 0 1 90 90v510a90 90 0 0 1-90 90z m5-90v-510a5 5 0 0 0-5-5h-809a5 5 0 0 0-5 5v510a5 5 0 0 0 5 5h809a5 5 0 0 0 4-5z m227 90a109 109 0 1 1 108-109 109 109 0 0 1-109 109z m23-109a24 24 0 1 0-24 24 24 24 0 0 0 24-24z m-24-128a109 109 0 1 1 109-108 109 109 0 0 1-109 109z m24-108a24 24 0 1 0-24 24 24 24 0 0 0 24-24z" horiz-adv-x="1523" />

<glyph glyph-name="games" unicode="&#xe807;" d="M1365 260c-37 225-77 328-150 456-23 40-89 138-193 134-112-4-124-64-207-80-36-7-98-6-123-6h-9c-26 0-87-1-123 6-83 16-96 76-207 80-105 4-171-94-193-134-74-128-113-231-150-456-28-173 7-353 68-391 72-44 157-10 215 65 42 53 112 125 179 155 65 29 167 32 215 32s151-3 215-32c67-30 138-102 180-156 58-74 143-108 215-64 60 38 96 218 68 391z m-882 190a52 52 0 0 0-52-52h-53v-53a52 52 0 0 0-51-52h-8a52 52 0 0 0-52 52v53h-52a52 52 0 0 0-52 51v8a52 52 0 0 0 52 52h52v52a52 52 0 0 0 52 52h8a52 52 0 0 0 51-52v-52h53a52 52 0 0 0 52-52z m204-264a81 81 0 1 0 81 80 81 81 0 0 0-81-80z m365 427a56 56 0 1 0-56-55 56 56 0 0 0 56 55z m-105-215a55 55 0 1 0 56 55 56 56 0 0 0-56-55z m105-105a56 56 0 1 0 55 56 56 56 0 0 0-55-56z m104 105a55 55 0 1 0 56 55 56 56 0 0 0-56-55z" horiz-adv-x="1375" />

<glyph glyph-name="informatica" unicode="&#xe808;" d="M1567 17h-122v790a43 43 0 0 1-43 43h-1179a43 43 0 0 1-43-43v-790h-123a57 57 0 0 1-57-57v-52a57 57 0 0 1 57-58h1510a57 57 0 0 1 58 58v52a57 57 0 0 1-58 57z m-508-86a22 22 0 0 0-21-22h-451a22 22 0 0 0-21 22v20a22 22 0 0 0 0 5h493a22 22 0 0 0 0-5z m254-21a18 18 0 1 0 18 18 18 18 0 0 0-18-18z m20 139h-1041v698a2 2 0 0 0 2 1h1037a2 2 0 0 0 2-1z m64-139a18 18 0 1 0 18 19 18 18 0 0 0-18-19z m84 0a18 18 0 1 0 19 19 18 18 0 0 0-19-19z" horiz-adv-x="1625" />

<glyph glyph-name="livros" unicode="&#xe809;" d="M1111 739h-55v56c0 32-21 55-56 55h-111c-111 0-207-22-306-111-98 89-194 111-305 111h-111c-35 0-56-23-56-55v-56h-55a56 56 0 0 1-56-56v-722a56 56 0 0 1 56-56h444a56 56 0 0 1 56-55h55a56 56 0 0 1 56 55h444a56 56 0 0 1 56 56v722a56 56 0 0 1-56 56z m-1055-722v666h55v-555c0-33 21-56 56-56h111c55 0 120-6 187-55z m500 0c-99 89-167 111-278 111h-111v666h111c166 0 216-55 278-111z m55 0v666c61 56 111 112 278 112h111v-667h-111c-111 0-180-22-278-111z m500 0h-409c67 49 131 55 187 55h111c35 0 56 23 56 56v555h55z" horiz-adv-x="1167" />

<glyph glyph-name="oinc" unicode="&#xe80a;" d="M842 817c99-49 147-191 147-351 0-281-146-616-417-616-164 0-238 139-248 312-222 5-324 139-324 269 0 122 90 239 254 239a140 140 0 0 0 82-23l-48-78a121 121 0 0 1-70 20c-94 0-148-75-148-158 0-99 77-210 253-216 6 286 168 635 391 635a128 128 0 0 0 112-56z m-433-595c233 50 370 325 370 479 0 62-22 104-69 104-164 0-290-321-301-583z m168-327c203 0 332 335 332 605 0 114-22 217-73 277a239 239 0 0 0 23-108c0-189-160-463-449-503 4-151 53-271 167-271z m580 571c-31-141-57-244-57-317 0-26 10-31 18-31 23 0 53 50 92 153 5 0 25-6 25-11v-1c-39-102-70-206-144-206-48 0-64 45-64 107 0 99 40 241 54 306z m-65 98c0 32 23 70 63 70 29 0 42-21 42-46 0-33-24-71-63-71a42 42 0 0 0-42 46z m91-505a689 689 0 0 0 34 148c18 102 33 192 44 260h76l-9-60c28 43 64 70 102 70 31 0 52-20 52-63 0-84-59-190-59-264 0-25 10-30 18-30 24 0 53 50 92 153 6 0 26-7 26-12-40-103-80-206-154-206-31 0-60 25-60 80 0 96 58 196 58 260 0 10-5 18-14 18-23 0-62-42-91-168l-37-187z m510 234a214 214 0 0 1 30 96c0 19-6 31-18 31-47 0-87-106-87-191 0-56 18-103 63-103 43 0 92 48 131 147 5 0 25-7 25-13-27-71-96-210-191-210-70 0-100 71-100 156 0 122 63 270 162 270 51 0 72-41 72-93a299 299 0 0 0-30-122z m150-197c0 32 23 70 62 70 30 0 43-21 43-46 0-33-24-71-63-71a42 42 0 0 0-42 45z m262 594a3393 3393 0 0 1-159-480l-50 9a4371 4371 0 0 0 127 493z" horiz-adv-x="2105" />

<glyph glyph-name="relogio" unicode="&#xe80b;" d="M500-150a500 500 0 1 0 500 500 501 501 0 0 0-500-500z m0 960a460 460 0 1 1 460-460 460 460 0 0 1-460 460z m17-21h-34v-96h34z m-455-422v-34h96v34z m781 0v-34h96v34z m-326-362h-34v-96h34z m203 504a27 27 0 0 1 0 38l0 0a27 27 0 0 1-38 0l-162-162 0 0a58 58 0 0 1-42-1l-223 223a27 27 0 0 1-37 0l-1-1a27 27 0 0 1 0-37l226-226a58 58 0 1 1 113 3c1 0 1 1 2 1z" horiz-adv-x="1000" />

<glyph glyph-name="tablet" unicode="&#xe80c;" d="M1421 850h-1279a142 142 0 0 1-142-141v-718a142 142 0 0 1 142-141h1279a142 142 0 0 1 142 141v718a142 142 0 0 1-142 141z m-1283-751a19 19 0 0 0-18-20 19 19 0 0 0-18 20v98a19 19 0 0 0 18 20 19 19 0 0 0 18-20z m0 202a19 19 0 0 0-18-20 19 19 0 0 0-18 20v98a19 19 0 0 0 18 20 19 19 0 0 0 18-20z m0 202a19 19 0 0 0-18-20 19 19 0 0 0-18 20v98a19 19 0 0 0 18 20 19 19 0 0 0 18-20z m1197-521h-1107v736h1107z m126 117a18 18 0 1 0-36 0v98a18 18 0 1 0 36 0z m0 202a18 18 0 1 0-36 0v98a18 18 0 1 0 36 0z m0 202a18 18 0 1 0-36 0v98a18 18 0 1 0 36 0z" horiz-adv-x="1563" />

<glyph glyph-name="telefone" unicode="&#xe80d;" d="M192 846a36 36 0 0 0 24 3 35 35 0 0 0 15-8 165 165 0 0 0 14-17c21-40 44-89 67-144q10-24 20-50c10-24 5-46-13-56-25-13-35-17-57-28l-95 217-26 59a390 390 0 0 0 51 24z m628-920l-262 187a46 46 0 0 0-11-8 35 35 0 0 0-36 1c-136 83-232 220-311 373-9 17-3 34 2 39a82 82 0 0 0 24 12l-117 267-1 1 0-1c-31-23-59-42-80-75-16-25-32-42-27-76 14-92 59-298 212-489a891 891 0 0 1 197-178 1058 1058 0 0 1 126-73 834 834 0 0 1 141-55c22-6 52 11 71 22a534 534 0 0 1 72 53z m67 99c-3 23-27 37-44 50-19 14-136 104-183 124-40 17-53-15-73-44-2-3-4-6-7-10l269-191c17 19 40 51 38 71z" horiz-adv-x="887" />

<glyph glyph-name="tv" unicode="&#xe80e;" d="M1389 850h-1344a48 48 0 0 1-45-49v-771a48 48 0 0 1 45-49h624v-52h-425a78 78 0 0 1-78-78v-1h1102v1a78 78 0 0 1-78 78h-425v52h623a48 48 0 0 1 46 49v771a48 48 0 0 1-45 49z m-57-854a21 21 0 1 0 22 21 21 21 0 0 0-22-21z m23 63h-1276v713h1276z" horiz-adv-x="1434" />

<glyph glyph-name="search" unicode="&#xe80f;" d="M643 386q0 103-73 176t-177 74-177-74-73-176 73-177 177-73 177 73 73 177z m286-465q0-29-22-50t-50-21q-30 0-50 21l-191 191q-100-69-223-69-80 0-153 31t-125 84-84 125-31 153 31 152 84 126 125 84 153 31 153-31 125-84 84-126 31-152q0-123-69-223l191-191q21-21 21-51z" horiz-adv-x="928.6" />

<glyph glyph-name="mail" unicode="&#xe810;" d="M929 11v428q-18-20-39-36-149-115-238-189-28-24-46-37t-48-28-57-13h-2q-26 0-57 13t-48 28-46 37q-88 74-238 189-21 16-39 36v-428q0-7 6-13t12-5h822q7 0 12 5t6 13z m0 586v14t-1 7-1 7-3 5-5 4-8 2h-822q-7 0-12-6t-6-12q0-94 83-159 107-84 223-176 4-3 20-17t25-21 25-17 28-16 24-5h2q11 0 24 5t28 16 25 17 25 21 20 17q116 92 224 176 30 24 56 65t26 73z m71 21v-607q0-37-26-63t-63-27h-822q-36 0-63 27t-26 63v607q0 37 26 63t63 26h822q37 0 63-26t26-63z" horiz-adv-x="1000" />

<glyph glyph-name="basket" unicode="&#xe811;" d="M950 715q23 0 39-18t14-42l-53-365q-2-18-17-31t-34-12l-590 0 9-53 528 0q22 0 37-16t16-36-16-37-37-15l-572 0q-20 0-35 13t-16 30l-98 582-72 0q-22 0-37 15t-16 37 16 36 37 16l116 0q19 0 34-12t17-32l11-60 719 0z m-60-105l-200 0 0-103 185 0z m-252 0l-157 0 0-103 157 0 0 103z m0-156l-157 0 0-104 157 0 0 104z m-208 156l-182 0 18-105q3 2 8 2l156 0 0 103z m-156-156l17-104 139 0 0 104-156 0z m416-104l164 0 14 104-178 0 0-104z m-416-390q0 78 77 78 79 0 79-78 0-79-79-79-77 0-77 79z m469 0q0 78 77 78 79 0 79-78 0-79-79-79-77 0-77 79z" horiz-adv-x="1003" />

<glyph glyph-name="config" unicode="&#xe814;" d="M363 806l-7 26c-12-3-23-6-32-9-7-2-13-5-19-8-4-2-9-5-13-8-3-2-6-5-8-8-4-4-8-10-10-16-2-5-2-12-2-17 0-8 1-16 3-23l13-48 0 0 9 2-9 0c0-1 0-2 0-2l9 2-9 0h8l-7 2c-1 0-1-1-1-2h8l-7 2 3-1-3 3c0 0 0-1 0-2l3-1-3 3 0 0 0 0 0 0 0 0 0 0 0 0 0 0c-13-9-26-18-39-27-12-10-24-20-35-30l0 0 0 0 0-1 0 1 0 0 0-1 0 1 2-5v5c-1 0-2 0-2 0l2-4v4-8l2 8c-2 0-2 0-3 0v-9l2 8-2-9 5 8c-1 1-2 1-3 1l-2-9 5 8c-15 9-30 17-44 26-5 3-10 5-16 7-6 2-12 4-19 4-5 0-9-1-14-2-4-2-8-4-11-5-6-4-11-8-15-13-7-7-12-15-18-25-7-9-13-20-20-33-10-18-18-32-24-45-3-6-6-12-8-18-1-6-3-13-3-20 0-5 1-11 3-16 2-4 3-8 6-11 3-6 7-10 12-13 4-4 8-6 13-9l44-25 4 8-7-6c1-1 2-2 3-2l4 8-7-6 6 4-7-2c0 0 0-2 1-2l6 4-7-2 3 1-3 0c0 0 0 0 0-1l3 1-3 0 0 0 0 0 0 0 0 0 0 0 0 0 0 0c-4-15-6-31-8-46-3-15-4-31-4-47v0l0 0 0-1 0 1 0 0 0-1 0 1 4-2-3 3c-1-1-1-1-1-1l4-2-3 4 6-7-5 8c-1-1-1-1-1-1l6-7-5 8 5-8-2 9c-1 0-2-1-3-1l5-8-2 9-49-13c-6-2-12-4-17-7-5-2-9-4-13-8-3-2-5-5-8-8-3-5-6-11-7-17-2-5-2-11-2-16 0-5 0-10 1-16 1-7 3-16 5-25 2-9 5-19 8-31 4-14 7-26 11-37 2-8 5-15 8-22 2-5 4-9 7-14 3-3 5-6 8-9 3-3 5-5 8-7 4-3 9-5 14-6 5-1 10-2 14-2 8 0 16 2 23 4l0 0 49 13 0 0-3 9v-9c1 0 2 0 3 0l-3 9v-9 8l-2-8c0 0 1 0 2 0v8l-2-8 1 4-3-3c0 0 1-1 2-1l1 4-3-3 0 0 0 0 0 0 0 0 0 0 0 0c8-14 17-26 27-39l0 0c9-12 19-24 30-36l0 0 0 0 0 0 0 0v0l0 0 0 0 2 1-2 0c0 0 1-1 1-1l2 1-2 0 5 1h-6c0 0 0-1 1-1l5 1h-6 9l-8 2c-1 0-1-1-1-2h9l-8 2 9-2-8 5c-1-1-1-2-1-3l9-2-8 5c-9-15-17-29-25-44-4-5-6-10-8-16-2-6-4-12-4-19 0-4 1-9 3-14 1-4 3-8 5-11 3-6 7-11 12-15 7-7 15-12 25-18 9-6 20-13 34-20 17-10 31-18 44-24 6-3 12-6 18-8 7-1 13-3 20-3 5 0 11 1 16 3 4 2 8 4 12 6 5 3 9 7 12 12 4 4 7 8 9 13l25 44-7 4 6-7c1 1 1 2 2 3l-8 5 6-7-5 5 2-7c1 0 2 1 3 2l-5 5 2-7-1 3 1-3c0 0 0 0 0 0l-1 4 1-4-1 1v-1l1 0-1 1v-1l0 0 0 0c16-3 32-6 47-8l0 0c15-2 31-3 46-4l0 0 1 0 0 2-1-1 1-1 0 2-1-1 3 5-4-4c0-1 1-1 1-1l3 5-4-4 7 6-9-2c0-2 1-3 2-4l7 6-9-2 0 0 13-49c2-5 4-11 6-17 2-4 5-8 8-12 3-3 6-6 9-8 5-4 11-6 16-8 6-1 11-2 17-2 5 0 10 1 15 1 8 2 17 3 26 6 9 2 19 5 31 8 14 4 26 7 37 10 8 3 15 5 21 8 5 2 10 5 15 8 3 2 6 5 9 8 3 2 5 5 7 8 2 4 4 9 6 13 1 5 2 10 2 15 0 8-2 15-4 22l0 0-13 49-9-2 9 0c0 0 0 1 0 2l-9-2 9 0h-8l8-3c0 1 0 2 0 3h-8l8-3-4 1 3-2c0 0 0 0 1 1l-4 1 3-2 0 0 0 0 0 0 0 0 0 0 0 0 0 0c13 8 26 17 38 27 13 9 25 19 36 30l0 0 0 0 0 0 0 1 0-1 0 0 0 1 0-1-2 4 0-4c2 0 2 0 2 0l-2 4 0-4v8l-2-8c1 0 2 0 2 0v8l-2-8 3 9-5-8c1-1 2-1 2-1l3 9-5-8 44-25c5-3 10-6 15-8 6-2 12-3 19-3 5 0 10 0 14 2 4 1 8 3 11 5 6 3 11 8 16 12 6 7 12 15 18 25 6 10 12 21 20 34 10 17 18 31 24 44 3 6 5 12 7 19 2 6 3 12 3 19 0 5-1 11-3 16-1 4-3 8-5 12-4 5-8 9-12 12-4 4-9 7-14 9-14 9-29 17-43 26l-5-9 7 7c0 0-1 1-2 2l-5-9 7 7-5-5 7 2c0 1-1 2-2 3l-5-5 7 2-3-1 3 1c0 0 0 0 0 0l-3-1 3 1-1-1 1 0 0 0-1 0 1 0 0 0h0l0 0 0 0h0l0 0c4 16 6 32 8 47 2 15 4 31 4 46l0 1-1 0 1-1 0 1-1 0 1-1-5 3 4-4c1 0 1 1 1 1l-5 3 4-4-6 7 2-9c2 0 3 1 4 2l-6 7 2-9 0 0 48 13c6 2 12 3 18 6 4 2 8 5 12 8 3 3 6 6 8 9 4 5 6 11 8 16 1 6 2 11 2 17 0 5-1 10-2 15-1 8-2 16-5 26-2 9-5 19-8 30-4 15-7 27-10 38-3 8-5 15-8 21-2 5-5 10-8 14-2 4-5 7-8 10-2 2-5 5-8 6-4 3-9 5-14 7-4 1-9 2-14 2-8 0-15-2-23-4l-48-13 0 0 2-9v9c0 0-1 0-2 0l2-9v9-8l3 8c-1 0-2 0-3 0v-8l3 8-1-4 2 3c0 0 0 0-1 1l-1-4 2 3 0 0 0 0 0 0 0 0 0 0 0 0 0 0c-8 14-17 27-27 39-9 12-19 24-30 36l0 0 0 0 0 0 0 0 0 0 0 0 0 0-4-2h5c0 1-1 2-1 2l-4-2h5-9l9-2c0 1 0 1 0 2h-9l9-2-9 2 8-5c0 1 0 2 1 3l-9 2 8-5 0 0 25 44c3 5 5 10 7 16 2 6 4 12 4 19 0 4-1 9-2 14-1 4-3 8-5 11-4 6-8 11-13 15-7 7-15 12-24 18-10 7-21 13-34 20-18 10-32 18-45 24-6 3-12 6-18 8-6 1-13 3-20 3-5 0-11-1-16-3-4-2-8-3-11-6-5-3-9-7-13-12-3-4-6-8-9-13-8-14-17-29-25-44l8-4-6 7c-1-1-2-2-2-3l8-4-6 7 5-6-3 7c0 0-1 0-2-1l5-6-3 7 1-3 0 3c0 0 0 0 0 0l1-3-1 3 0 0v0l0 0 0 0v0l0 0c-15 4-30 6-45 8-16 3-32 4-48 4l0 0-1-1 1 1 0 0-1-1 1 1-3-5 5 4c-1 0-2 1-2 1l-3-5 5 4-7-7 9 3c-1 1-2 3-2 3l-7-6 9 3 0 0-13 48c-2 6-4 12-7 17-2 5-4 9-8 13-3 2-6 4-9 7-5 3-11 6-16 7-6 2-11 2-17 2-5 0-10 0-15-1-8-1-16-3-26-5-9-2-19-5-31-8-4-1-8-3-12-4l7-26 7-26c4 1 8 3 13 4 15 4 27 7 37 9 5 1 9 2 12 2 4 1 6 1 8 1 1 0 2 0 3 0l0 0 0 0 0 0 1 4-2-3c0-1 1-1 1-1l1 4-2-3 2 4-3-3c0-1 0-1 1-1l2 4-3-3 1 1-1-1 0 0 1 1-1-1 0 0 0 0 0 0 0 0 0 0c0 0 0-1 1-2 0-2 1-4 2-7l13-48 0 0c2-6 4-12 8-16 2-4 6-7 9-9 4-4 10-6 15-8 5-1 10-2 15-2 14 0 27-2 42-3 13-2 27-4 40-7 4-1 8-2 12-2 8 0 15 2 23 5 3 2 7 4 10 7 4 3 7 7 9 11 9 15 17 29 25 44 2 2 3 4 4 6 1 0 1 1 1 1l0 0-3 4 2-5c1 1 1 1 1 1l-3 4 2-5-2 6 1-6c0 0 1 0 1 0l-2 6 1-6-1 4 1-4 0 0-1 4 1-4-1 2 0-2 0 0 0 2 0-2 0 0 0 0 0 0 0 0 0 0c0 0 2 0 4-1 4-1 11-4 19-8 9-5 20-11 33-18 11-6 20-12 28-17 6-3 11-6 14-9 3-2 5-4 7-5 1-1 2-2 2-2 0-1 0-1 0-1l0 0 4 2-4-1c0-1 0-1 0-1l4 2-4-1 6 1-6 0c0 0 0-1 0-1l6 1-6 0h3l-3 0 0 0h3l-3 0 1 0-1 0 0 0 1 0-1 0c0 0 0 0 0-2-1-1-2-3-3-6l-25-43 0 0c-3-4-4-8-5-11-1-4-1-8-1-12 0-7 1-14 4-20 3-6 6-11 11-15 9-10 18-20 26-31 9-11 17-23 24-34 4-7 9-13 16-17 4-2 7-4 12-6 4-1 9-2 14-2 4 0 8 1 12 2l0 0 48 13c5 1 8 1 9 1l0 0 0 0 1 5-2-4c0-1 1-1 1-1l0 4-2-4 3 5-4-4c1 0 1 0 1-1l3 5-4-4 1 2-1-2 0 0 1 2-1-2 1 0-1 0 0 0 1 0-1 0c0 0 1-1 2-3 2-4 5-10 8-20 3-9 6-21 10-35 4-15 7-28 10-38 1-4 1-8 2-12 0-3 1-6 1-8 0-1 0-2-1-2l0-1 0 0 0 0 5-1-4 3c0-1-1-1-1-2l5-1-4 3 4-3-3 4c0 0 0-1-1-1l4-3-3 4 1-2-1 2 0 0 1-2-1 2 0-1 0 1 0 0 0-1 0 1c0 0 0-1-2-1-1-1-4-2-6-2l-49-14 0 0c-6-1-11-4-16-8-3-2-6-5-9-8-3-5-5-10-7-15-2-5-3-11-3-16 0-13-1-26-3-40-2-14-4-28-7-41-1-4-2-9-2-13 0-7 2-15 5-22 2-4 5-8 8-11 3-3 6-6 10-8 15-9 29-17 44-26 3-1 5-2 6-3 1-1 1-2 1-2l0 0 4 3-4-1c0-1 0-2 0-2l4 3-4-1 5 2-5-1c0-1 0-1 0-1l5 2-5-1 3 0-3 0 0 0 3 0-3 0 1 0-1 0 0 0 1 0-1 0 0 0h0l0 0 0 0h0c0 0 0-1-1-4-2-4-4-10-9-19-4-9-10-19-18-32-6-12-12-21-16-29-4-5-7-10-10-14-2-3-3-4-5-6-1-1-2-2-2-2-1-1-1-1-1-1l0 0 2-3-1 3c0 0-1 0-1 0l2-3-1 3 1-5v5c0 0 0 0-1 0l1-5v5-3l1 3-1 0v-3l1 3 0 0c-1 0-1 0-3 1-1 1-3 1-6 3l-43 25c-4 2-7 3-11 4-4 1-8 2-11 2-8 0-14-2-20-5-6-2-11-6-16-10l0 0c-10-10-20-18-31-27-11-8-23-16-34-23l0 0c-6-4-12-10-17-17-2-3-4-7-5-12-2-4-3-9-3-14 0-3 1-7 2-11l13-49 0 0c1-5 2-8 2-9l0 0 0 0 4 0-4 2c0-1 0-2 0-2l4 0-4 2 4-2-4 3c0 0 0-1 0-1l4-2-4 3 2-1-2 1 0 0 2-1-2 1 1 0-1 0 0 0 1 0-1 0c0 0 0-1-3-2-3-2-10-5-19-8-9-3-21-6-36-10-15-4-27-7-37-9-5-1-9-2-13-3-3 0-6 0-8 0-1 0-1 0-2 0l0 0 0 0 0 0-2-4 3 3c0 1-1 1-1 1l-2-4 3 3-3-4 4 3c0 0-1 1-1 1l-3-4 4 3-1-1 1 1 0 0-1-1 1 1 0 0 0 0 0 0 0-1 0 0c0 0-1 1-1 3-1 1-1 3-2 6l-13 49 0 0c-2 6-5 11-8 16-3 3-6 6-9 8-5 4-10 6-15 8-5 1-10 2-15 2l0 0c-14 1-27 2-41 4l0 0c-14 2-28 4-41 7l0 0c-4 1-8 1-12 1-8 0-15-1-23-4-3-2-7-5-11-8-3-3-6-7-8-11l-25-43c-2-3-3-5-4-6-1-1-1-1-1-2l0 0 2-3-1 4c-1 0-1-1-1-1l2-3-1 4 2-5-1 5c0 0-1 0-1 0l2-5-1 5 0-3 0 3 0 0 0-3 0 3 0-1 0 1 0 0 1-1 0 1 0 0v0l0 0 0 0v0c0 0-2 0-4 1-4 1-11 4-20 9-8 4-19 10-32 17-11 7-21 12-28 17-6 4-11 7-14 9-3 3-5 4-7 6-1 1-2 1-2 2 0 0-1 1-1 1l0 0-3-2 4 1c-1 0-1 1-1 1l-3-2 4 1-6-2 6 0c0 1 0 1-1 2l-5-2 5 0h-3l3 0 0 0h-3l3 0 0 0 0 0 0 0 0 0 0 0c0 0 0 1 1 2 1 2 2 4 3 6 9 15 17 29 25 44 2 4 4 7 5 11 1 4 1 8 1 11 0 8-2 14-4 20-3 6-6 11-11 16-9 10-18 20-27 31l0 0c-8 11-16 22-23 34-4 6-9 12-16 17-4 2-8 4-12 5-4 2-9 3-14 3-4 0-8-1-12-2l0 0-48-13 0 0c-5-1-8-2-9-2l0 0 0 0 0-4 2 4c-1 0-2 1-2 1l0-5 2 4-2-4 3 4c0 0-1 0-1 0l-2-4 3 4-1-2 1 2 0 0-1-2 1 2 0-1 0 1 0 0 0-1 0 1c0 0-1 1-2 3-2 3-5 10-8 19-3 10-6 21-10 36-4 15-7 27-9 37-1 5-2 9-3 13 0 3 0 6 0 8 0 1 0 2 0 2l0 1 0 0 0 0-4 1 3-3c1 1 1 1 1 2l-4 1 3-3-4 3 3-4c1 0 1 1 1 1l-4 3 3-4-1 1 1-1 0 0-1 1 1-1 0 0 0 0 0 0 0 0 0 0c0 0 1 1 2 1 2 1 4 2 7 2l48 13c6 2 12 5 16 8 4 3 6 6 9 9 3 5 6 10 7 15 2 5 3 10 3 16v0c0 13 1 27 3 41 2 14 4 27 7 40l0 0c1 4 1 8 1 13 0 7-1 14-4 22-2 4-5 7-8 11-3 3-7 6-11 8l-43 25c-3 2-5 3-6 4-1 1-1 1-2 2l0 0-3-3 4 1c0 1-1 2-1 2l-3-3 4 1-5-2 5 1c0 0 0 1 0 1l-5-2 5 1-3 0 3 0 0 0-3 0 3 0-1 0 1 0 0 0-1-1 1 0 0 0 0 0v0l0 0 0 0c0 0 0 2 1 4 1 4 4 11 9 20 4 8 10 19 18 32 6 11 11 21 16 28 4 6 7 11 10 15 2 2 3 4 5 6 1 1 2 2 2 2 1 0 1 1 1 1l0 0-2 3 1-4c0 1 1 1 1 1l-2 3 1-4-2 6 0-6c1 0 1 0 2 1l-2 5 0-5v3l0-3 0 0v3l0-3 0 0 0 0 0 0 0 0 0 0c0 0 1 0 2-1 2 0 4-2 6-3 15-9 29-17 44-25 4-2 7-4 11-5 4-1 8-1 11-1 8 0 14 2 20 4 6 3 11 7 16 11 9 9 20 18 31 26 11 9 22 17 34 24l0 0c6 4 12 9 17 16 2 4 4 8 5 12 2 4 3 9 3 14 0 4-1 8-2 12l0 0-13 48c-1 5-2 8-2 9 0 0 0 1 0 1l-4 0 4-1c0 0 0 1 0 1l-4 0 3-1-5 2 5-4c0 1 0 1 0 2l-5 2 5-4-2 2 1-2 1 0-2 2 1-2 0 0 0 0 0 0 0 0 0 0c0 0 1 1 3 2 3 2 8 4 16 6 7 3 16 6 28 9l-7 25z m68-201l7-27c21 6 42 9 62 9 52 0 102-18 143-48 40-31 71-74 86-127 5-21 8-42 8-62 0-52-17-102-48-143-30-40-74-71-127-86-21-5-41-8-62-8-52 0-102 18-143 48-40 31-71 74-85 127-6 21-9 41-9 62 0 52 18 102 48 143 31 40 74 71 127 85l-7 27-7 26c-65-18-118-56-156-106-37-49-59-111-59-175 0-25 4-51 10-76 18-65 56-118 106-156 49-37 111-59 175-59 25 0 50 4 76 10 65 18 118 56 156 106 37 49 59 111 59 175 0 25-4 50-10 76-18 65-56 118-106 156-49 37-111 58-175 59-25 0-51-4-76-10l7-26z" horiz-adv-x="1000" />

<glyph glyph-name="resgate" unicode="&#xe815;" d="M338 259c0 0 0-12 43-31 30-13 49-26 62-41 14-15 19-34 19-57 0-21-11-40-25-57-12-14-26-23-52-29v-39h-80v36c-13 4-33 13-50 26l0 9 34 60 15-13c15-12 33-18 54-18 12 0 22 3 28 8 6 5 9 10 9 16 0 16-25 28-40 34-58 25-87 56-87 93 0 22 6 41 21 57 11 12 3 21 43 27v50h53v-49c27-3 42-10 59-19l24-9-39-62-15 13c-10 9-26 14-46 14-9 0-17-2-23-6-5-4-7-7-7-13z m379-142c0-46-11-112-64-167-61-63-159-94-292-94-133 0-231 31-291 94-53 54-64 120-64 165v1c0 55 32 136 99 240 44 70 90 131 114 160-9 7-14 18-14 29 0 15 9 29 22 35-8 13-18 24-26 34-3 4-7 8-9 11-40 50-51 99-33 146 14 36 52 73 97 73 2 0 3 0 4 0 30-1 53-19 73-35 9-7 17-14 26-19 21-13 49-19 84-19 7 0 13 0 20 1 4 0 8 0 13 1 9 1 19 2 29 2 47 0 60-25 63-45 3-23-8-44-18-60-9-14-19-27-28-40-12-17-23-32-32-48 14-6 25-20 25-37 0-11-6-22-14-29 3-5 7-10 11-15 33-41 59-76 82-111 3-5 7-10 10-15 50-73 113-164 113-255l0-3z m-456 474h193c1 0 2-1 2 1 12 21 26 37 39 56 9 13 19 26 27 39 7 11 15 26 14 39-1 6-2 16-31 16-9 0-18-1-26-1-5-1-10-1-15-2-7 0-14 0-21 0-42 0-75 8-102 24-10 6-19 14-28 21-18 14-35 28-55 29-30 1-59-25-69-52-14-36-5-73 28-114 2-3 5-4 8-8 12-14 27-31 36-48z m216-41l0 0c-1 3-4 6-7 6h-224c-4 0-7-3-7-7-1-1-2-1-2-3 0-3 3-4 5-4h4 224 7c3 0 5 1 5 4s-3 4-5 4z m208-433l0 3c-1 81-60 168-108 237-3 5-6 10-10 15-23 34-48 70-80 110-7 9-14 19-21 27h-214c-78-91-218-293-217-392 1-86 46-230 325-230 124 0 215 29 269 85 46 48 56 105 56 145z m32 3l5 0c0 47-16 93-38 137-22 43-51 85-75 121-4 5-7 10-11 15-23 35-49 70-81 112-4 5-8 9-12 14l-4-3 3-5c10 8 16 21 16 34 0 10-3 18-8 26-5 7-12 12-20 16l-2-6 5-2c9 15 20 31 31 47 10 13 20 26 29 41 4 7 9 15 13 25 3 9 6 19 6 30 0 3 0 6-1 8 0 6-2 12-4 17-4 9-11 17-21 23-11 6-24 10-43 10-10 0-21-1-30-2-4-1-9-1-12-1-7-1-13-1-19-1-18 0-33 1-47 5-13 3-25 7-36 14-7 4-15 11-24 18-10 8-21 16-34 24-12 7-26 12-42 13-2 0-3 0-4 0-13 0-24-3-35-7-16-7-30-17-42-29-12-13-20-27-26-41-6-15-8-30-8-46 0-17 3-35 10-53 7-17 18-35 32-53 2-3 6-7 9-11 8-9 18-21 26-33l4 3-2 5c-8-4-14-9-18-16-5-7-8-15-8-24 0-13 6-25 16-33l4 4-5 3c-23-29-69-90-114-160-34-52-59-99-75-139-17-41-25-76-25-104v-1c0-23 3-51 13-81 9-30 26-60 53-88 30-32 71-56 120-72 49-16 107-24 174-24 67 0 126 8 175 24 50 16 90 40 121 72 28 28 44 60 54 89 9 30 12 59 12 82v0l0 3-5 0 5 0-5 0-6 0 0-4 6 1h-6c0-22-2-50-12-78-9-28-25-58-50-85-30-31-69-54-117-69-48-16-105-24-171-24-67 0-123 8-171 24-48 15-87 38-116 69-26 26-41 55-51 84-9 28-12 55-12 77v1c0 26 8 60 24 99 17 40 41 86 75 138 44 69 90 130 113 159l4 4-4 4c-7 6-12 15-12 25 0 7 2 13 5 18 4 5 8 9 14 12l5 3-3 5c-8 13-18 25-27 35-3 4-6 8-9 11-13 17-23 33-30 50-6 16-10 32-10 48 0 14 3 28 8 42 7 17 19 35 35 48 9 6 18 12 27 16 10 4 20 6 30 6 1 0 2 0 4 0 14-1 26-5 37-12 12-6 22-15 33-23 8-7 17-14 25-19 12-7 25-12 39-15 15-3 31-5 49-5 6 0 13 0 20 1 4 0 8 0 13 1 9 1 19 2 29 2 11 0 20-2 27-4 11-4 18-9 22-15 5-7 7-14 8-21 0-2 0-4 0-7 0-9-2-18-6-26-3-8-8-16-12-23-8-14-18-27-27-41-12-16-23-31-33-48l-3-6 6-2c6-2 11-6 15-12 4-5 6-12 6-19 0-10-4-19-12-25l-4-4 4-4c3-5 7-9 11-14 32-42 58-77 82-111 3-5 6-10 10-15 25-36 53-77 74-120 22-43 38-87 38-132l0 0 0 0 6 0z m-492 519l5 3c-2 2-4 4-6 5-1 2-2 2-3 3-11 15-19 28-25 41-5 13-8 25-8 37 0 11 2 21 6 31 5 12 13 24 25 33 5 5 11 9 18 11 6 3 12 4 19 4 1 0 1 0 2 0 9 0 17-3 25-8 9-6 18-12 27-20 9-7 18-15 29-21 28-17 62-25 104-25 7 0 14 0 22 1 4 0 9 0 14 1 8 1 17 2 26 2 6 0 12-1 15-2 3-1 5-2 6-2 1-1 1-1 2-2 0-1 1-1 1-3 0 0 1-2 1-3 0-1 0-2 0-3 0-5-2-10-4-16-2-6-6-11-9-16-8-13-17-26-26-39-7-9-14-18-21-27-6-9-13-18-19-30l3-1-2 3c0-1-1-2-1-2l3-1-2 3 3-4-1 4c-1 0-1 0-2 0l3-4-1 4 1-4v4c0 0-1 0-1 0l1-4v4-4l1 4c-1 0-1 0-1 0v-4l1 4-1-3 1 3 0 0-1-3 1 3 0 0 0 0 0 0 0 0 0 0c0 0-1 0-2 0h-193v-5l5 3c-5 8-11 17-18 25-6 8-13 16-19 23l-4-3-4-4c6-7 12-14 19-23 6-8 12-16 17-24l1-3h196v5l-1-5c1 0 1 0 1 0v5l-1-5 1 3-1-3 0 0 1 3-1-3 0 0c0 0 1 0 2 0 1 0 1 0 2 0 1 1 2 1 3 2 0 1 1 1 1 2 6 10 12 19 18 28 7 9 14 18 21 28 9 12 19 25 27 39 3 5 7 11 10 17 2 7 5 14 5 21 0 2 0 3-1 4 0 2 0 4-1 7-1 2-2 4-4 6-2 3-6 5-11 7-5 1-12 2-20 2-9 0-18-1-27-2-5 0-9-1-14-1-7 0-14-1-21-1-40 0-72 8-98 24-10 5-19 13-28 20-9 7-18 15-27 20-10 6-20 10-31 11-1 0-2 0-3 0-8 0-16-2-24-5-11-5-21-13-29-21-9-9-15-20-19-30-4-12-7-23-7-35 0-14 3-28 9-42 6-14 15-28 27-43 1-2 3-3 4-4 2-1 3-2 4-4l4 4z m257-93h-5 1l-1 0c0 0 0 0 0 0h1l-1 0 2-1-2 2c0 0 0 0 0-1l2-1-1 2 1-1-1 1 0 0 1-1-1 1 0 0 0 0 0 0 0 0 0 0 0 0c0 0-1 0-1 0h-7-224-3c-1 0-1 0-1 0l0 0 0 0 0 0 0 0 0 0 0 0-1-2 2 2c-1 0-1 0-1 0l-1-2 2 2-2-2 2 1 0 1-2-1 2 0-1 0h1l0 0-1 0h1-2l2-1c0 1 0 1 0 1h-2l2-1-2 1 1-1c0 0 0 0 1 0l-2 1 1-2 2 2 0 3c0 0 1 1 1 1 0 0 0 0 1 0h224c0 0 0 0 1 0 0 0 0-1 0-1l1-5h5c0 0 0 0 0 0l0 0 1 1-1-1 0 0 1 1-1-1 1 2-1-1c0 0 0-1 0-1l1 2-1-1 2 1-2-1 0 0 2 1-2-1 1 0-1 0 0 0 1 0-1 0h5 6c0 2-1 4-1 5-1 1-2 2-3 3-1 1-2 1-4 2-1 0-2 0-3 0h0v-5l5 1c0 3-2 6-4 8-2 2-5 3-8 3h-224c-4 0-7-2-9-4-2-2-4-5-4-9l6 0-3 5c-2-1-3-2-4-4 0-1-1-3-1-4 0-2 1-3 1-5 1-1 2-2 3-3 1-1 2-1 4-2 1 0 2 0 3 0h4 224 7c1 0 2 0 3 0 2 0 4 1 5 3 1 1 2 2 2 3 1 1 1 2 1 3h-6z m147-574l-4 4c-26-27-62-48-106-62-44-14-98-21-159-21-70 0-124 9-166 24-32 11-58 25-78 41-30 24-49 52-60 80-11 28-15 56-15 79l-6 0 6 0c0 0 0 0 0 1 0 11 2 25 6 40 6 26 19 56 34 87 47 94 125 201 176 260l-4 4v-6h214v6l-5-4c6-8 14-17 21-26 32-41 57-76 80-110 3-4 7-10 10-15 24-34 51-73 71-113 21-40 35-82 36-121l0-3v0c0-19-3-43-11-67-8-25-21-51-44-74l4-4 4-4c24 25 38 52 46 78 9 26 11 51 11 71l0 3c0 42-15 85-37 126-21 41-47 80-71 115-4 4-7 10-10 15-24 34-49 69-81 110-7 9-14 18-21 26l-2 3h-218l-2-2c-39-46-94-119-139-193-22-37-42-75-57-110-7-17-13-34-17-49-4-16-6-30-6-43 0 0 0-1 0-1l0 0 0 0c0-22 4-47 13-73 7-20 17-40 31-59 22-28 54-54 101-73 47-18 107-30 186-30 63 0 117 8 163 22 45 14 82 36 110 65l-4 3z" horiz-adv-x="722" />

<glyph glyph-name="extrato" unicode="&#xe816;" d="M364-29c0-8-2-16-5-23-5-11-12-20-22-27-10-6-21-10-34-10-8 0-16 2-24 5-10 4-20 12-26 22-7 9-10 21-10 33v758c0 16-4 32-10 47-9 22-25 40-44 53-19 13-43 21-68 21-16 0-32-3-47-9-21-10-40-25-53-45-13-19-21-42-21-67 0-8 3-16 9-22 6-5 14-9 22-9h121c17 0 30 14 30 31 0 17-13 30-30 30h-121v-30h30c0 8 2 16 5 23 4 11 12 20 22 27 9 6 21 10 33 10 9 0 17-2 24-5 11-4 20-12 27-22 6-9 10-21 10-33v-758c0-17 3-33 9-47 10-22 25-40 44-53 20-13 43-21 68-21 17 0 33 3 48 9 21 10 40 25 53 45 13 19 20 42 20 67 0 17-13 31-30 31-17 0-30-14-30-31l0 0z m-243 818l667 0c8 0 16-2 24-5 10-4 20-12 26-22 7-9 10-21 10-33v-758c0-17 14-30 31-30 17 0 30 13 30 30h0v758c0 16-3 32-9 47-9 22-25 40-44 53-20 13-43 21-68 21h-667m182-1000h576c16 0 32 3 47 9 22 10 40 25 53 45 13 19 21 42 21 67 0 8-3 16-9 22-6 5-14 9-22 9h-575c-17 0-30-14-30-31 0-17 13-30 30-30l576 0v30h-31c0-8-2-16-5-23-4-11-12-20-22-27-9-6-21-10-33-10h-576c-17 0-30-14-30-31 0-17 13-30 30-30l0 0z m223 610c7 5 16 8 28 8 23 0 42-6 54-16l18-16 45 73-29 10c-19 11-37 19-69 24v57h-62v-60c-47-6-38-17-51-31-17-19-25-41-25-67 0-43 35-81 103-110 17-7 46-22 46-40 0-8-3-14-9-19-8-6-20-9-34-9-25 0-46 7-63 21l-19 14-38-69 0-11c20-16 43-26 58-31v-42h94v46c32 7 47 18 61 34 18 20 30 43 30 68 0 26-6 49-22 67-15 17-38 32-73 48-51 22-51 36-51 37 0 6 3 11 8 14z" horiz-adv-x="1000" />

<glyph glyph-name="twitter" unicode="&#xf099;" d="M904 622q-37-54-90-93 0-8 0-23 0-73-21-145t-64-139-103-117-144-82-181-30q-151 0-276 81 19-2 43-2 126 0 224 77-59 1-105 36t-64 89q19-3 34-3 24 0 48 6-63 13-104 62t-41 115v2q38-21 82-23-37 25-59 64t-22 86q0 49 25 91 68-83 164-133t208-55q-5 21-5 41 0 75 53 127t127 53q79 0 132-57 61 12 115 44-21-64-80-100 52 6 104 28z" horiz-adv-x="928.6" />

<glyph glyph-name="facebook" unicode="&#xf09a;" d="M535 843v-147h-87q-48 0-65-20t-17-60v-106h164l-22-165h-142v-424h-171v424h-142v165h142v122q0 104 58 161t155 57q82 0 127-7z" horiz-adv-x="571.4" />

<glyph glyph-name="instagram" unicode="&#xf16d;" d="M571 350q0 59-41 101t-101 42-101-42-42-101 42-101 101-42 101 42 41 101z m77 0q0-91-64-156t-155-64-156 64-64 156 64 156 156 64 155-64 64-156z m61 229q0-21-15-36t-37-15-36 15-15 36 15 36 36 15 37-15 15-36z m-280 123q-4 0-43 0t-59 0-54-2-57-5-40-11q-28-11-49-32t-33-49q-6-16-10-40t-6-58-1-53 0-59 0-43 0-43 0-59 1-53 6-58 10-40q12-28 33-49t49-32q16-6 40-11t57-5 54-2 59 0 43 0 42 0 59 0 54 2 58 5 39 11q28 11 50 32t32 49q6 16 10 40t6 58 1 53 0 59 0 43 0 43 0 59-1 53-6 58-10 40q-11 28-32 49t-50 32q-16 6-39 11t-58 5-54 2-59 0-42 0z m428-352q0-128-3-177-5-116-69-180t-179-69q-50-3-177-3t-177 3q-116 6-180 69t-69 180q-3 49-3 177t3 177q5 116 69 180t180 69q49 3 177 3t177-3q116-6 179-69t69-180q3-49 3-177z" horiz-adv-x="857.1" />
</font>
</defs>
</svg>
